<svg width="24" height="24" viewBox="0 0 24 24" fill="none" xmlns="http://www.w3.org/2000/svg">
<path d="M17.3645 5.3623C17.716 5.01081 18.2863 5.01099 18.6379 5.3623C18.9895 5.71388 18.9895 6.28416 18.6379 6.63574L13.2737 11.999L18.636 17.3633C18.9876 17.7148 18.9875 18.2851 18.636 18.6367C18.461 18.8117 18.2306 18.9003 18.0002 18.9004C17.7989 18.9004 17.5968 18.8335 17.4319 18.6982L17.3635 18.6367L11.9993 13.2725L6.63599 18.6367C6.461 18.8117 6.23062 18.9003 6.00024 18.9004C5.79893 18.9004 5.59684 18.8335 5.43188 18.6982L5.36353 18.6367C5.01221 18.2851 5.01204 17.7148 5.36353 17.3633L10.7278 11.999L5.36353 6.63574C5.01221 6.28414 5.01204 5.71379 5.36353 5.3623C5.71502 5.01081 6.28536 5.01098 6.63696 5.3623L12.0002 10.7266L17.3645 5.3623Z" fill="#4B5563" stroke="#4B5563" stroke-width="0.3"/>
</svg>
